<?xml version="1.0" encoding="UTF-8"?>
<svg id="Camada_1" data-name="Camada 1" xmlns="http://www.w3.org/2000/svg" version="1.1" viewBox="0 0 312.5 312.5">
  <defs>
    <style>
      .cls-1 {
        fill: #fff;
        stroke-width: 0px;
      }
    </style>
  </defs>
  <!-- Octógono externo -->
  <path class="cls-1" d="M241.5,18.3C229.8,6.6,213.9,0,197.3,0h-82.2C98.6,0,82.7,6.6,71,18.3l-52.7,52.7C6.6,82.7,0,98.6,0,115.2v82.2c0,16.6,6.6,32.5,18.3,44.2l52.7,52.7c11.7,11.7,27.6,18.3,44.2,18.3h82.2c16.6,0,32.5-6.6,44.2-18.3l52.7-52.7c11.7-11.7,18.3-27.6,18.3-44.2v-82.2c0-16.6-6.6-32.5-18.3-44.2l-52.7-52.7ZM293.8,197.3c0,11.7-4.6,22.7-12.8,30.9l-52.7,52.7c-8.3,8.3-19.3,12.8-30.9,12.8h-82.2c-11.7,0-22.7-4.6-30.9-12.8l-52.7-52.7c-8.3-8.3-12.8-19.3-12.8-30.9v-82.2c0-11.7,4.6-22.7,12.8-30.9l52.7-52.7c8.3-8.3,19.3-12.8,30.9-12.8h82.2c11.7,0,22.7,4.6,30.9,12.8l52.7,52.7c8.3,8.3,12.8,19.3,12.8,30.9v82.2Z"/>
  <!-- Cubo interno (ícone principal) -->
  <path class="cls-1" d="M227.1,107.3l-9.5-5.5-54.4-31.6c-4.3-2.5-9.6-2.5-13.9,0l-54.4,31.6-9.5,5.5c-4.5,2.6-7.3,7.5-7.3,12.8v72.3c0,5.3,2.8,10.2,7.3,12.8l9.5,5.5,54.4,31.6c4.3,2.5,9.6,2.5,13.9,0l54.4-31.6,9.5-5.5c4.5-2.6,7.3-7.5,7.3-12.8v-72.3c0-5.3-2.8-10.2-7.3-12.8ZM156.3,84.5l54,31.3-54,31.3-54-31.3,54-31.3ZM94.9,129.8l45.6,26.4-45.6,26.4v-52.9ZM156.3,228l-54-31.3,54-31.3,54,31.3-54,31.3ZM217.7,182.7l-45.6-26.4,45.6-26.4v52.9Z"/>
</svg>
