<?xml version="1.0" encoding="UTF-8"?>
<svg id="Camada_1" data-name="Camada 1" xmlns="http://www.w3.org/2000/svg" version="1.1" viewBox="0 0 2560 312.5">
  <defs>
    <style>
      .cls-1 {
        fill: #fff;
        stroke-width: 0px;
      }
    </style>
  </defs>
  <polygon class="cls-1" points="1374.8 70.9 1347.8 70.9 1347.8 241.7 1449.6 241.7 1449.6 216.3 1374.8 216.3 1374.8 70.9"/>
  <path class="cls-1" d="M1563.4,142.2c-5.1-9.1-12.3-16.2-21.3-21-8.9-4.8-19.2-7.2-30.7-7.2s-22.2,2.7-31.2,8.1c-9.1,5.4-16.3,13.1-21.3,22.8-5,9.7-7.5,21-7.5,33.7s2.6,23.8,7.8,33.6c5.2,9.8,12.6,17.5,22,22.9,9.4,5.3,20.4,8.1,32.8,8.1s26.6-4.2,36.6-12.4c10-8.2,16.3-18.9,18.7-31.8l.8-4h-26l-.7,2.5c-1.8,7-5.4,12.2-10.8,16.1-5.4,3.9-12.1,5.8-20,5.8s-18.3-3.1-24.6-9.6c-6-6.1-9.2-14-9.8-24.1h92.5l.3-3c.3-3.9.5-6.7.5-8.5h0c-.3-12.2-3.1-22.9-8.2-31.9ZM1480,163c1.4-7,4.7-12.7,10.1-17.4,6.3-5.5,13.4-8.1,21.8-8.1s17.1,2.6,23.1,7.7c5.2,4.4,8.4,10.3,9.7,17.8h-64.6Z"/>
  <path class="cls-1" d="M1649,114c-15.4,0-27.9,4.5-37.2,13.5l-1.9-12.1h-22.8v126.3h25.9v-63.1c0-12.6,3-22.6,8.9-29.8,5.8-7.1,13.6-10.5,23.9-10.5s16.6,2.8,21.5,8.6c5,5.8,7.5,14.6,7.5,26.1v68.8h25.9v-69.9c0-19.6-4.8-34.3-14.2-43.6-9.4-9.4-22-14.1-37.4-14.1Z"/>
  <polygon class="cls-1" points="2490.5 58.6 2500.5 58.6 2500.5 86.8 2507.9 86.8 2507.9 58.6 2517.9 58.6 2517.9 52.2 2490.5 52.2 2490.5 58.6"/>
  <polygon class="cls-1" points="2550.5 52.2 2541.2 77.6 2531.6 52.2 2521.9 52.2 2521.9 86.8 2529 86.8 2529 63.6 2537.9 86.8 2544 86.8 2552.9 63.6 2552.9 86.8 2560 86.8 2560 52.2 2550.5 52.2"/>
  <polygon class="cls-1" points="2071.4 260.6 2122.1 260.6 2122.1 237.1 2096.8 237.1 2096.8 75.8 2122.1 75.8 2122.1 52.2 2071.4 52.2 2071.4 260.6"/>
  <path class="cls-1" d="M1812.9,127.7c-3.2-3.2-7-5.9-11.3-8.1-7.3-3.7-16.2-5.6-26.4-5.6s-22,2.8-31.2,8.2c-9.2,5.5-16.6,13.1-21.8,22.9-5.2,9.7-7.8,20.9-7.8,33.5s2.6,24.7,7.8,34.4c5.2,9.8,12.5,17.3,21.7,22.4,9.1,5.1,19.7,7.7,31.3,7.7s28.7-5.4,38.8-16l2,14.6h22.9V70.9h-25.9v56.9ZM1808.5,200.2c-3,6-7.3,10.8-12.7,14.1-5.5,3.3-11.8,5-18.8,5-11,0-19.6-3.7-26.2-11.2-6.7-7.5-10.1-17.5-10.1-29.6s3.4-22,10.1-29.6c6.7-7.5,15.3-11.2,26.2-11.2s13.3,1.7,18.8,5.1c5.5,3.4,9.7,8.3,12.7,14.5,3,6.3,4.6,13.6,4.6,21.7s-1.5,15-4.6,21.2Z"/>
  <polygon class="cls-1" points="1953.4 69.4 1921.8 69.4 1897.7 107.8 1920.2 107.8 1953.4 69.4"/>
  <path class="cls-1" d="M1963.1,212.1v-51.6c0-14.8-4.6-26.5-13.7-34.5-9-7.9-21.7-12-37.7-12s-27.5,3.5-37,10.5c-9.7,7.1-15.4,17.1-16.9,29.7l-.4,3.7h25.7l.5-2.7c1.1-5.3,3.9-9.4,8.6-12.6,4.8-3.3,11.1-4.9,18.7-4.9s15.2,1.9,19.8,5.8c4.5,3.7,6.7,8.9,6.7,15.7v4.9h-31.9c-16.3,0-29,3.5-37.8,10.3-9,7-13.6,17.2-13.6,30.3s4.5,21.3,13.4,28.2c8.6,6.7,20.1,10.1,34.1,10.1s28.5-5.1,38-15.3c1,3.3,2.7,6.1,5,8.3,4,3.8,10.1,5.6,18.7,5.6h13.9v-24.2h-9.2c-2.9,0-4.7-.9-4.7-5.4ZM1937.2,189.6c0,9.3-2.9,16.5-9,22.1-6.1,5.6-14.6,8.4-25.4,8.4s-12.9-1.6-17-4.7c-3.9-3-5.7-6.8-5.7-11.7,0-7.1,2.4-16.6,23.4-16.6h33.7v2.5Z"/>
  <path class="cls-1" d="M2019.3,120.8c-3.5,2.1-6.7,4.7-9.5,7.7l-1.9-13.1h-22.9v126.3h25.9v-64.3c0-10.6,2.3-19.5,6.9-26.6,4.3-6.7,11.4-10,21.7-10h12.9v-25.4h-8.7c-10.3,0-18.5,1.8-24.5,5.4Z"/>
  <polygon class="cls-1" points="2142.4 94.7 2178.5 94.7 2178.5 218.4 2142.4 218.4 2142.4 242 2241.5 242 2241.5 218.4 2205.6 218.4 2205.6 94.7 2241.5 94.7 2241.5 71.1 2142.4 71.1 2142.4 94.7"/>
  <path class="cls-1" d="M2314.4,71.1l-60.5,170.8h27.9l15.9-44.3h62.6l15.7,44.3h28.9l-60.8-170.8h-29.8ZM2305.9,172.5l22.8-65.7,23.2,65.7h-46Z"/>
  <polygon class="cls-1" points="2413.8 75.8 2439.1 75.8 2439.1 237.1 2413.8 237.1 2413.8 260.6 2464.5 260.6 2464.5 52.2 2413.8 52.2 2413.8 75.8"/>
  <path class="cls-1" d="M672.2,128.7c-3.2-3.5-7-6.4-11.3-8.8-7.4-4.1-16.4-6.2-26.7-6.2s-22.2,2.8-31.5,8.2c-9.3,5.5-16.7,13.1-21.9,22.9-5.2,9.7-7.8,20.9-7.8,33.4s2.6,24.7,7.8,34.3c5.2,9.8,12.6,17.3,21.9,22.5,9.2,5.1,19.8,7.7,31.5,7.7s27.5-4.6,36.6-13.7v1.7c0,22.6-10.9,33.1-34.3,33.1s-16.6-1.8-22.2-5.4c-5.4-3.4-8.7-8.2-10-14.5l-.7-3.3h-26.9l-64.9-169.5h-29.7l-65.4,170.1h29.8l17.2-43.7h65.4l17.2,43.7h29.7l.5,4c1.7,13.9,7.9,24.8,18.6,32.4,10.4,7.4,23.9,11.2,40,11.2s36.4-4.9,47-14.4c10.7-9.7,16.1-24.2,16.1-43.1v-116.3h-24.3l-1.7,13.6ZM473,171.1l23.4-62.1,23.6,62.1h-47ZM666.7,199.2c-2.9,5.9-7,10.3-12.3,13.6-5.3,3.2-11.4,4.8-18.2,4.8-10.7,0-19-3.5-25.4-10.8-6.6-7.4-9.8-16.7-9.8-28.6s3.2-21.2,9.8-28.6c6.5-7.2,14.8-10.8,25.4-10.8s12.9,1.7,18.2,4.9c5.3,3.3,9.4,7.9,12.3,13.9,3,6.1,4.5,13.2,4.5,21s-1.5,14.5-4.5,20.5Z"/>
  <polygon class="cls-1" points="771.7 92.1 790.1 109.5 819.6 109.5 782.6 69.8 760.8 69.8 723.8 109.5 753.1 109.5 771.7 92.1"/>
  <path class="cls-1" d="M824.7,142c-5.2-9.1-12.4-16.2-21.5-21-9-4.8-19.3-7.2-30.8-7.2s-22.3,2.7-31.5,8.1c-9.2,5.4-16.4,13.1-21.5,22.8-5,9.6-7.6,20.9-7.6,33.6s2.6,23.8,7.8,33.5c5.2,9.8,12.7,17.5,22.2,22.9,9.4,5.3,20.6,8.1,33,8.1s26.8-4.2,36.9-12.4c10-8.2,16.4-18.9,18.9-31.9l.9-4.9h-27.5l-.8,3.1c-1.8,6.7-5.2,11.7-10.4,15.4-5.2,3.7-11.8,5.6-19.4,5.6s-17.8-3-23.8-9.2c-5.6-5.7-8.7-13.1-9.4-22.4h91.8l.3-3.8c.3-3.8.5-6.6.5-8.4h0c-.3-12.1-3.1-22.8-8.2-31.8ZM742.1,162.1c1.4-6.3,4.6-11.5,9.5-15.7,6.1-5.2,13-7.8,21.1-7.8s16.5,2.4,22.4,7.4c4.8,4,7.8,9.3,9.2,16.1h-62.1Z"/>
  <path class="cls-1" d="M909,113.7c-14.9,0-27.1,4.2-36.4,12.5l-1.8-11.1h-24.2v126.1h27.4v-63.1c0-12.2,2.9-21.9,8.6-28.8,5.6-6.8,13.2-10.1,23.1-10.1s16,2.7,20.7,8.2c4.8,5.6,7.3,14.1,7.3,25.2v68.6h27.4v-69.8c0-19.5-4.8-34.2-14.4-43.6-9.5-9.4-22.2-14.1-37.7-14.1Z"/>
  <path class="cls-1" d="M1064.3,195.6c-1.5,6.9-4.7,12.2-9.9,16.1-5.2,3.9-11.6,5.9-19.4,5.9s-18.2-3.5-24.5-10.7c-6.4-7.3-9.6-17-9.6-28.9s3.2-21.3,9.6-28.5c6.3-7.1,14.3-10.6,24.5-10.6s13.7,1.9,18.9,5.9c5.2,3.9,8.5,9.1,10.1,15.7l.8,3.1h27.5l-.9-4.8c-2.5-13.9-8.7-25-18.6-33-9.8-8-22.3-12-37.2-12s-23.1,2.7-32.6,8.1c-9.5,5.4-17,13-22.2,22.8-5.2,9.7-7.8,20.9-7.8,33.4s2.6,23.7,7.7,33.5c5.2,9.8,12.5,17.6,21.8,23,9.3,5.4,20.2,8.2,32.4,8.2s27.7-4.1,37.6-12.2c9.9-8.1,16.3-19.3,18.9-33.3l.9-4.9h-27.4l-.7,3.2Z"/>
  <path class="cls-1" d="M1119.1,69.6c-4.7,0-8.7,1.6-11.8,4.7-3.1,3.1-4.7,7-4.7,11.7s1.6,8.6,4.7,11.7c3.1,3.1,7.1,4.7,11.8,4.7s8.7-1.6,11.8-4.7c3.1-3.1,4.7-7,4.7-11.7s-1.6-8.6-4.7-11.7-7.1-4.7-11.8-4.7Z"/>
  <rect class="cls-1" x="1105.4" y="115.1" width="27.4" height="126.1"/>
  <path class="cls-1" d="M1256.3,211.3v-50.9c0-14.9-4.7-26.5-13.9-34.6-9.1-8-21.9-12-38-12s-27.7,3.5-37.3,10.5c-9.9,7.1-15.6,17.2-17.2,29.9l-.6,4.6h27.1l.7-3.3c1-5,3.7-8.9,8.2-11.9,4.6-3.1,10.7-4.7,18.1-4.7s14.7,1.9,19.1,5.5c4.3,3.5,6.3,8.4,6.3,14.9v4h-30.8c-16.4,0-29.2,3.5-38.1,10.4-9.2,7.1-13.8,17.4-13.8,30.5s4.6,21.5,13.6,28.4c8.7,6.7,20.3,10.1,34.3,10.1s27.9-4.8,37.4-14.4c1.1,2.8,2.7,5.3,4.7,7.2,4.1,3.9,10.4,5.8,19.2,5.8h14.6v-25.6h-10c-2.3,0-3.8-.3-3.8-4.4ZM1228.9,189.1c0,8.9-2.8,15.8-8.7,21.1-5.9,5.3-14.2,8.1-24.7,8.1s-12.5-1.5-16.4-4.5c-3.7-2.8-5.4-6.2-5.4-10.8,0-6.7,2.3-15.5,22.4-15.5h32.7v1.7Z"/>
  <path class="cls-1" d="M241.5,18.3C229.8,6.6,213.9,0,197.3,0h-82.2C98.6,0,82.7,6.6,71,18.3l-52.7,52.7C6.6,82.7,0,98.6,0,115.2v82.2c0,16.6,6.6,32.5,18.3,44.2l52.7,52.7c11.7,11.7,27.6,18.3,44.2,18.3h82.2c16.6,0,32.5-6.6,44.2-18.3l52.7-52.7c11.7-11.7,18.3-27.6,18.3-44.2v-82.2c0-16.6-6.6-32.5-18.3-44.2l-52.7-52.7ZM293.8,197.3c0,11.7-4.6,22.7-12.8,30.9l-52.7,52.7c-8.3,8.3-19.3,12.8-30.9,12.8h-82.2c-11.7,0-22.7-4.6-30.9-12.8l-52.7-52.7c-8.3-8.3-12.8-19.3-12.8-30.9v-82.2c0-11.7,4.6-22.7,12.8-30.9l52.7-52.7c8.3-8.3,19.3-12.8,30.9-12.8h82.2c11.7,0,22.7,4.6,30.9,12.8l52.7,52.7c8.3,8.3,12.8,19.3,12.8,30.9v82.2Z"/>
  <path class="cls-1" d="M227.1,107.3l-9.5-5.5-54.4-31.6c-4.3-2.5-9.6-2.5-13.9,0l-54.4,31.6-9.5,5.5c-4.5,2.6-7.3,7.5-7.3,12.8v72.3c0,5.3,2.8,10.2,7.3,12.8l9.5,5.5,54.4,31.6c4.3,2.5,9.6,2.5,13.9,0l54.4-31.6,9.5-5.5c4.5-2.6,7.3-7.5,7.3-12.8v-72.3c0-5.3-2.8-10.2-7.3-12.8ZM156.3,84.5l54,31.3-54,31.3-54-31.3,54-31.3ZM94.9,129.8l45.6,26.4-45.6,26.4v-52.9ZM156.3,228l-54-31.3,54-31.3,54,31.3-54,31.3ZM217.7,182.7l-45.6-26.4,45.6-26.4v52.9Z"/>
</svg>